<svg width="12" height="12" viewBox="0 0 12 12" fill="none" xmlns="http://www.w3.org/2000/svg">
<g id="Icon / Currency">
<path id="Vector" d="M7.21626 5.67422L4.49048 4.89609C4.12016 4.79062 3.82016 4.49297 3.76157 4.11094C3.67016 3.51562 4.13188 3 4.71079 3H6.44048C6.81313 3 7.17876 3.11719 7.4811 3.33047C7.6311 3.43594 7.83267 3.41953 7.96157 3.29062L8.49829 2.75391C8.65767 2.59453 8.64126 2.32734 8.46314 2.18906C7.88423 1.74141 7.1811 1.5 6.44048 1.5H6.37485V0.375C6.37485 0.16875 6.2061 0 5.99985 0H5.24985C5.0436 0 4.87485 0.16875 4.87485 0.375V1.5H4.81626C3.66313 1.5 2.59907 2.24531 2.3225 3.36563C1.99672 4.68281 2.79594 5.97187 4.03344 6.32578L6.75923 7.10391C7.12954 7.20938 7.42954 7.50703 7.48814 7.88906C7.57954 8.48438 7.11782 9 6.53892 9H4.80923C4.43657 9 4.07094 8.88281 3.7686 8.66953C3.6186 8.56406 3.41704 8.58047 3.28813 8.70938L2.75141 9.24609C2.59204 9.40547 2.60844 9.67266 2.78657 9.81094C3.36313 10.2586 4.06626 10.5 4.80923 10.5H4.87485V11.625C4.87485 11.8313 5.0436 12 5.24985 12H5.99985C6.2061 12 6.37485 11.8313 6.37485 11.625V10.5H6.43345C7.58657 10.5 8.65064 9.75469 8.9272 8.63437C9.25298 7.31719 8.45376 6.02813 7.21626 5.67422Z" fill="#697386"/>
</g>
</svg>
