<svg width="12" height="13" viewBox="0 0 12 13" fill="none" xmlns="http://www.w3.org/2000/svg">
<g id="Icon / Left">
<path id="Vector" d="M7.60371 3.41662L9.00011 3.9988L9.5823 5.39521C9.59785 5.42641 9.62179 5.45266 9.65144 5.47101C9.68108 5.48935 9.71525 5.49907 9.75011 5.49907C9.78497 5.49907 9.81915 5.48935 9.84879 5.47101C9.87843 5.45266 9.90237 5.42641 9.91792 5.39521L10.5001 3.9988L11.8965 3.41662C11.9277 3.40107 11.954 3.37712 11.9723 3.34748C11.9907 3.31784 12.0004 3.28367 12.0004 3.2488C12.0004 3.21394 11.9907 3.17977 11.9723 3.15013C11.954 3.12048 11.9277 3.09654 11.8965 3.08099L10.5001 2.4988L9.91792 1.1024C9.90237 1.0712 9.87843 1.04495 9.84879 1.0266C9.81915 1.00825 9.78497 0.998535 9.75011 0.998535C9.71525 0.998535 9.68108 1.00825 9.65144 1.0266C9.62179 1.04495 9.59785 1.0712 9.5823 1.1024L9.00011 2.4988L7.60371 3.08099C7.57251 3.09654 7.54626 3.12048 7.52791 3.15013C7.50956 3.17977 7.49984 3.21394 7.49984 3.2488C7.49984 3.28367 7.50956 3.31784 7.52791 3.34748C7.54626 3.37712 7.57251 3.40107 7.60371 3.41662ZM11.8965 10.581L10.5001 9.9988L9.91792 8.6024C9.90237 8.5712 9.87843 8.54495 9.84879 8.5266C9.81915 8.50826 9.78497 8.49854 9.75011 8.49854C9.71525 8.49854 9.68108 8.50826 9.65144 8.5266C9.62179 8.54495 9.59785 8.5712 9.5823 8.6024L9.00011 9.9988L7.60371 10.581C7.57251 10.5965 7.54626 10.6205 7.52791 10.6501C7.50956 10.6798 7.49984 10.7139 7.49984 10.7488C7.49984 10.7837 7.50956 10.8178 7.52791 10.8475C7.54626 10.8771 7.57251 10.9011 7.60371 10.9166L9.00011 11.4988L9.5823 12.8952C9.59785 12.9264 9.62179 12.9527 9.65144 12.971C9.68108 12.9894 9.71525 12.9991 9.75011 12.9991C9.78497 12.9991 9.81915 12.9894 9.84879 12.971C9.87843 12.9527 9.90237 12.9264 9.91792 12.8952L10.5001 11.4988L11.8965 10.9166C11.9277 10.9011 11.954 10.8771 11.9723 10.8475C11.9907 10.8178 12.0004 10.7837 12.0004 10.7488C12.0004 10.7139 11.9907 10.6798 11.9723 10.6501C11.954 10.6205 11.9277 10.5965 11.8965 10.581ZM9.00011 6.9988C9.0001 6.89429 8.97097 6.79185 8.916 6.70297C8.86102 6.61409 8.78237 6.54228 8.68886 6.4956L6.23144 5.26701L5.00332 2.80982C4.81277 2.42896 4.18746 2.42896 3.99691 2.80982L2.76855 5.26701L0.311362 6.4956C0.217882 6.5423 0.139257 6.61412 0.0843047 6.703C0.0293522 6.79188 0.000244141 6.89431 0.000244141 6.9988C0.000244141 7.1033 0.0293522 7.20573 0.0843047 7.29461C0.139257 7.38349 0.217882 7.45531 0.311362 7.50201L2.76855 8.7306L3.99691 11.188C4.04361 11.2815 4.11542 11.3601 4.2043 11.4151C4.29319 11.47 4.39562 11.4991 4.50011 11.4991C4.60461 11.4991 4.70704 11.47 4.79592 11.4151C4.8848 11.3601 4.95662 11.2815 5.00332 11.188L6.23144 8.7306L8.68886 7.50201C8.78237 7.45533 8.86102 7.38352 8.916 7.29464C8.97097 7.20575 9.0001 7.10331 9.00011 6.9988ZM5.56136 7.8081C5.45233 7.8625 5.36391 7.95084 5.30941 8.05982L4.50011 9.67841L3.69082 8.05982C3.63631 7.95084 3.54789 7.8625 3.43886 7.8081L1.82027 6.9988L3.43886 6.18951C3.54786 6.13517 3.63627 6.04692 3.69082 5.93802L4.50011 4.31919L5.30941 5.93802C5.36395 6.04692 5.45237 6.13517 5.56136 6.18951L7.17996 6.9988L5.56136 7.8081Z" fill="#697386"/>
</g>
</svg>
