<svg width="12" height="12" viewBox="0 0 12 12" fill="none" xmlns="http://www.w3.org/2000/svg">
<g id="Icon / Percent">
<path id="Vector" d="M3.75017 5.25C4.99236 5.25 6.00017 4.24219 6.00017 3C6.00017 1.75781 4.99236 0.75 3.75017 0.75C2.50799 0.75 1.50017 1.75781 1.50017 3C1.50017 4.24219 2.50799 5.25 3.75017 5.25ZM3.75017 1.875C4.37127 1.875 4.87517 2.37891 4.87517 3C4.87517 3.62109 4.37127 4.125 3.75017 4.125C3.12908 4.125 2.62517 3.62109 2.62517 3C2.62517 2.37891 3.12908 1.875 3.75017 1.875ZM8.25017 6.75C7.00798 6.75 6.00017 7.75781 6.00017 9C6.00017 10.2422 7.00798 11.25 8.25017 11.25C9.49236 11.25 10.5002 10.2422 10.5002 9C10.5002 7.75781 9.49236 6.75 8.25017 6.75ZM8.25017 10.125C7.62908 10.125 7.12517 9.62109 7.12517 9C7.12517 8.37891 7.62908 7.875 8.25017 7.875C8.87126 7.875 9.37517 8.37891 9.37517 9C9.37517 9.62109 8.87126 10.125 8.25017 10.125ZM10.4509 1.19062L2.8408 11.1328C2.78689 11.2055 2.70252 11.25 2.61345 11.25H1.78142C1.55642 11.25 1.42283 10.9992 1.54705 10.8117L9.16892 0.867188C9.22282 0.794531 9.3072 0.75 9.39626 0.75H10.2189C10.4439 0.75 10.5775 1.00312 10.4509 1.19062Z" fill="#697386"/>
</g>
</svg>
